<?xml version="1.0" encoding="UTF-8"?>
<svg id="Calque_3" data-name="Calque 3" xmlns="http://www.w3.org/2000/svg" viewBox="0 0 150 150">
  <path d="M136.89,52.88c.36.5.79.95,1.31,1.34,1.01.81,2.2,1.22,3.6,1.22,1.78,0,3.24-.62,4.38-1.85,1.13-1.23,1.7-2.74,1.7-4.52,0-.71-.1-1.39-.29-2.04-.39-1.26-1.1-2.29-2.14-3.07-.55-.39-1.14-.67-1.75-.85-.62-.18-1.25-.27-1.9-.27-.68,0-1.33.1-1.95.29-.58.16-1.14.44-1.68.82-.53.39-.97.84-1.29,1.36-.78,1.1-1.17,2.35-1.17,3.74,0,.71.1,1.38.29,1.99.23.71.52,1.32.88,1.82Z"/>
  <path d="M39.14,70.15c-1.3-1.68-2.88-3.15-4.72-4.42-1.85-1.27-3.84-2.19-5.98-2.76-1.12-.29-2.23-.49-3.34-.57-1.11-.09-2.2-.09-3.29,0-2.08.17-4.13.67-6.14,1.51-2.01.84-3.89,2-5.64,3.49-1.67,1.44-3.12,3.14-4.35,5.11-1.23,1.97-2.15,4.1-2.75,6.4-.63,2.4-.89,4.74-.78,7.02.09,2.49.52,4.75,1.29,6.8.77,2.05,1.8,3.93,3.09,5.64,1.23,1.69,2.75,3.18,4.54,4.45s3.84,2.22,6.14,2.82c1.09.29,2.18.47,3.29.56,1.11.09,2.2.09,3.29,0,2.12-.2,4.19-.72,6.23-1.59,2.04-.86,3.89-2.03,5.57-3.51,2.01-1.76,3.59-3.67,4.73-5.73,1.14-2.06,1.96-4.05,2.47-5.96.3-1.15.51-2.31.63-3.48.11-1.17.16-2.32.13-3.45-.1-2.32-.54-4.53-1.33-6.63-.79-2.1-1.81-4.01-3.07-5.71ZM32.55,86.87c-.16.61-.36,1.2-.61,1.76s-.52,1.1-.81,1.61c-.43.78-1.05,1.58-1.87,2.41-.82.83-1.83,1.53-3.05,2.1-.97.5-2.01.78-3.11.87-1.1.08-2.16,0-3.15-.27-1.06-.28-2.03-.74-2.93-1.39-.95-.66-1.74-1.43-2.35-2.31-.61-.88-1.08-1.84-1.42-2.89-.43-1.31-.63-2.56-.61-3.75.02-1.19.17-2.28.43-3.27.16-.61.37-1.2.62-1.78s.52-1.13.82-1.63c.59-1.01,1.32-1.9,2.21-2.68.88-.78,1.8-1.38,2.75-1.81,2.02-.94,4.12-1.12,6.3-.55,1.03.27,1.99.71,2.9,1.33,1.01.71,1.81,1.53,2.4,2.45.6.93,1.05,1.84,1.36,2.74.33,1.08.52,2.21.56,3.4.04,1.19-.1,2.41-.43,3.66Z"/>
  <path d="M135.72,60.1v10c1.93-.58,3.85-1.16,5.78-1.74-1.93.76-3.85,1.53-5.78,2.29v36.52h12.17v-47.07h-12.17Z"/>
  <path d="M97.99,81.44c.2-1.23-.05-2.67-1.73-4.13-3.2-2.77-7.11-3.51-7.79-3.59-6.47-.82-11.69,2.88-13.67,4.28-5.21,3.7-7.66,8.53-8.7,11.04.1-.9.3-2.07.7-3.41.25-.84.89-2.82,2.31-5.11,1.13-1.82,2.29-3.09,3-3.83,6.23-6.42,13.25-7.73,13.97-12.54.29-1.96-.37-4.5-1.97-5.25-1.32-.62-3.06-.57-4.87.68-4.53,3.13-8.27,6.52-13.31,13.61-6.52,9.16-7.29,11.25-7.75,13.28-.6,2.62-1.58,6.44.11,10.58,1.4,3.43,3.9,5.39,5,6.23,3.16,2.42,6.36,3.04,8.42,3.45.73.14,3.1.57,6.26.4,1.58-.09,5.45-.34,9.36-2.21,9.71-4.66,11.66-15.54,11.51-17.3-.1-1.22-.61-1.92-.71-2.05-.04-1.38-.09-2.75-.13-4.13ZM86.39,94.69c-2.73,1.08-5.88-2.09-6.29-2.67-.32-.45-.54-.94-.54-.94-.15-.32-.22-.57-.24-.62-.2-.66-.17-1.22-.16-1.51.1-2.46,1.38-4.16,1.38-4.16,0,0,1.09-1.44,13.07.56-4.9,1.18-2.93,7.64-7.22,9.33Z"/>
  <path d="M61.73,76.54s0,0,0,0c.61-.97,1.22-1.83,2.05-3,4.91-6.91,7.19-8.35,6.86-11.13-.17-1.4-.92-3.22-2.25-3.62-1.99-.6-4.33,2.17-4.88,2.82-1.27,1.52-1.76,2.9-2.72,5.91-3.2,10.09-3.45,13.75-3.55,15.65-.05,1.1-.06,2-.05,2.59,2.01-4.53,3.65-7.75,3.88-8.14.32-.54.66-1.08.66-1.09Z"/>
  <path d="M58.41,68.51c-.35-.73-1.1-1.48-1.85-1.42-.92.07-1.49,1.33-1.81,2.06-1.43,3.28-.36,7.03.74,10.86.28.98.55,1.77.72,2.26.03-.79.1-1.97.28-3.41.11-.9.35-2.53.82-4.55.85-3.67,1.7-4.51,1.09-5.8Z"/>
  <path d="M55.1,63.23l2.14-.57-1.61-7.4-1.33.35c-.77.21-1.44.43-2,.68-1.22.52-2.2,1.22-2.94,2.1-.92,1.09-1.03,1.55-1.03,1.55-.24.47-.4.89-.7.92-.18.02-.38-.11-.46-.29-.1-.23.1-.4.3-1.06.09-.3.12-.53.13-.58.05-.37.04-.66.03-.83,0-.2-.04-.43-.11-.68l-7.65,2.04,7.9,29.59,7.65-2.04-5.05-18.91c-.28-1.07,0-2.04.82-2.92.8-.82,2.1-1.47,3.89-1.95Z"/>
  <path d="M100.65,107.16h12.17v-27.43c-4.06,1.61-8.11,3.22-12.17,4.83v22.6Z"/>
  <path d="M119.86,107.16h12.17v-35.05c-4.06,1.61-8.12,3.22-12.17,4.83v30.22Z"/>
  <path d="M112.83,72.75c.15-.11.28-.21.41-.3.13-.09.26-.17.41-.24.36-.18.65-.33.87-.46.22-.13.49-.22.81-.3.29-.07.56-.14.81-.19.25-.06.52-.08.81-.08s.61.04.98.11c.22.04.47.15.76.33.29.18.5.38.65.59.22.4.36.71.43.95.07.24.11.57.11,1v.7c4.05-1.22,8.09-2.43,12.14-3.65,0-.36-.02-.87-.07-1.49-.07-.84-.15-1.73-.45-2.75-.06-.2-.36-1.21-1.07-2.4-.63-1.06-1.53-2.59-3.27-3.57-1.48-.83-2.84-.86-4.43-.9-.5-.01-2.44-.03-4.76.75-.8.27-1.66.57-2.64,1.24-.88.61-1.51,1.05-2.06,1.87-.41.61-.59,1.15-1.05,1.21-.33.04-.75-.16-.9-.48-.26-.59.55-1.18,1.08-2.54.25-.63.31-1.1.43-2.06.23-1.77.27-8.33.02-17.25-4.06,0-8.13,0-12.19,0v37.8c4.06-1.22,8.11-2.44,12.17-3.66v-4.22Z"/>
  <path d="M132,71.21c0,.27.04.51.04.78v.11c1.23-.49,2.46-.98,3.69-1.46v-.55c-1.24.37-2.48.75-3.72,1.12Z"/>
  <path d="M112.83,76.98v2.75c2.34-.93,4.69-1.86,7.03-2.79v-2.08c-2.34.7-4.69,1.41-7.03,2.11Z"/>
  <path d="M97.99,81.44c-.25,1.57-1.25,2.78-1.13,3.12.13.34.71.41,1.22.96,0,0,.03.04.04.05.85-.34,1.69-.67,2.54-1.01v-3.92c-.89.27-1.78.53-2.67.8Z"/>
</svg>