<?xml version="1.0" encoding="UTF-8"?>
<svg id="Calque_2" data-name="Calque 2" xmlns="http://www.w3.org/2000/svg" viewBox="0 0 150 150">
  <g>
    <path d="M57.12,46.8c.93-3.19.42-7.55-2.07-9.17-2.05-1.33-4.96-1.65-8.24,0-8.24,4.15-15.23,8.93-25.24,19.54-8.46,8.98-12.82,13.34-15.21,18.58-1.9,4.16-5.07,11.13-2.97,19.28,1.56,6.04,5.29,9.89,6.87,11.49,4.7,4.74,9.87,6.52,13.2,7.66,1.17.4,5.02,1.66,10.3,2.1,2.64.22,9.14.7,16.06-1.52,17.2-5.51,22.93-23.13,23.09-26.08.13-2.27-.76-3.66-.76-3.66-.71-1.02-1.67-1.28-1.8-1.87-.24-1.06,6.26-5.79.66-12.17-4.67-5.34-11-7.46-12.11-7.76-9.84-2.66-18.63,1.57-23.68,3.98-8.13,3.88-13.75,9.34-17.36,13.78,1.28-2.31,3.13-5.33,5.71-8.59.23-.29,3.5-4.41,7.48-7.97,12.34-11.03,23.74-9.64,26.08-17.61ZM64.76,83.74c-8.42.83-6.62,12.02-14.14,13.84-4.78,1.16-9.29-4.82-9.84-5.87-.43-.82-.69-1.68-.69-1.68-.17-.57-.24-1-.25-1.09-.17-1.14,0-2.07.08-2.55.74-4.06,3.25-6.58,3.25-6.58s2.14-2.15,21.58,3.94Z"/>
    <path d="M4.19,76.06c4.38-7.06,7.84-12.03,8.32-12.64.66-.83,1.35-1.65,1.35-1.65,0,0,0,0,0,0,1.24-1.47,2.44-2.75,4.09-4.51,9.75-10.36,13.86-12.21,13.94-16.91.04-2.37-.79-5.56-2.9-6.53-3.17-1.45-7.68,2.6-8.75,3.57-2.46,2.22-3.59,4.41-5.87,9.2-7.63,16.02-8.89,22.05-9.49,25.17-.34,1.81-.56,3.3-.69,4.29Z"/>
    <path d="M3.39,70.02c.23-1.3.61-3.25,1.24-5.6.39-1.46,1.16-4.11,2.41-7.37,2.26-5.9,3.86-7.09,3.14-9.37-.41-1.3-1.5-2.7-2.74-2.78-1.54-.1-2.78,1.87-3.47,3-3.14,5.12-2.22,11.6-1.26,18.2.25,1.69.5,3.06.68,3.92Z"/>
  </g>
  <path d="M148.2,66.5c-26.7,6.54-53.41,13.08-80.11,19.62-.46-2.31-.92-4.62-1.38-6.92,27.16-4.23,54.33-8.47,81.49-12.7Z"/>
</svg>