<?xml version="1.0" encoding="UTF-8"?>
<svg id="Calque_2" data-name="Calque 2" xmlns="http://www.w3.org/2000/svg" viewBox="0 0 300 300">
  <defs>
    <style>
      .cls-1 {
        fill: #faf3e0;
      }
    </style>
  </defs>
  <g>
    <path class="cls-1" d="M114.59,94.14c1.85-6.32.83-14.96-4.11-18.16-4.06-2.63-9.82-3.27-16.33,0-16.33,8.23-30.18,17.69-50,38.72-16.76,17.78-25.4,26.43-30.13,36.81-3.76,8.25-10.05,22.05-5.88,38.2,3.09,11.96,10.47,19.6,13.61,22.76,9.3,9.39,19.55,12.91,26.14,15.17,2.32.8,9.94,3.29,20.4,4.15,5.23.43,18.1,1.38,31.82-3.02,34.07-10.92,45.43-45.82,45.75-51.67.25-4.5-1.51-7.25-1.51-7.25-1.41-2.02-3.31-2.53-3.57-3.7-.48-2.11,12.39-11.46,1.31-24.12-9.26-10.57-21.79-14.77-23.99-15.36-19.49-5.27-36.9,3.1-46.92,7.88-16.11,7.68-27.24,18.5-34.39,27.3,2.53-4.58,6.2-10.55,11.3-17.03.45-.57,6.94-8.75,14.82-15.79,24.44-21.86,47.04-19.11,51.67-34.9ZM129.72,167.31c-16.67,1.64-13.12,23.81-28.01,27.42-9.46,2.3-18.4-9.55-19.49-11.64-.86-1.63-1.36-3.34-1.36-3.34-.33-1.13-.47-1.99-.49-2.16-.35-2.26-.01-4.1.16-5.04,1.46-8.04,6.44-13.04,6.44-13.04s4.23-4.25,42.75,7.8Z"/>
    <path class="cls-1" d="M9.72,152.09c8.68-13.99,15.53-23.84,16.47-25.03,1.3-1.64,2.66-3.27,2.66-3.27,0,0,0,0,0,0,2.46-2.92,4.83-5.46,8.1-8.93,19.31-20.52,27.46-24.19,27.62-33.49.08-4.69-1.56-11.02-5.75-12.94-6.29-2.88-15.22,5.15-17.34,7.07-4.88,4.41-7.11,8.73-11.62,18.22-15.11,31.74-17.62,43.68-18.79,49.87-.68,3.58-1.1,6.55-1.36,8.5Z"/>
    <path class="cls-1" d="M8.13,140.13c.45-2.57,1.22-6.45,2.46-11.09.78-2.9,2.31-8.15,4.78-14.6,4.48-11.7,7.65-14.05,6.22-18.57-.81-2.57-2.96-5.36-5.43-5.51-3.05-.19-5.51,3.71-6.88,5.94-6.21,10.15-4.4,22.98-2.49,36.06.49,3.35,1,6.06,1.34,7.77Z"/>
  </g>
  <path class="cls-1" d="M295.02,133.17c-52.9,12.96-105.8,25.92-158.7,38.88-.91-4.57-1.82-9.14-2.73-13.72,53.81-8.39,107.62-16.77,161.44-25.16Z"/>
</svg>