<?xml version="1.0" encoding="UTF-8"?>
<svg id="Calque_2" data-name="Calque 2" xmlns="http://www.w3.org/2000/svg" viewBox="0 0 64 64">
  <g>
    <path d="M24.67,20.44c.38-1.31.17-3.1-.85-3.76-.84-.55-2.03-.68-3.38,0-3.38,1.7-6.24,3.66-10.35,8.01-3.47,3.68-5.26,5.47-6.24,7.62-.78,1.71-2.08,4.56-1.22,7.9.64,2.47,2.17,4.05,2.82,4.71,1.92,1.94,4.05,2.67,5.41,3.14.48.16,2.06.68,4.22.86,1.08.09,3.74.29,6.58-.62,7.05-2.26,9.4-9.48,9.47-10.69.05-.93-.31-1.5-.31-1.5-.29-.42-.68-.52-.74-.76-.1-.44,2.56-2.37.27-4.99-1.92-2.19-4.51-3.06-4.96-3.18-4.03-1.09-7.64.64-9.71,1.63-3.33,1.59-5.64,3.83-7.12,5.65.52-.95,1.28-2.18,2.34-3.52.09-.12,1.44-1.81,3.07-3.27,5.06-4.52,9.73-3.95,10.69-7.22ZM27.8,35.58c-3.45.34-2.72,4.93-5.79,5.67-1.96.48-3.81-1.98-4.03-2.41-.18-.34-.28-.69-.28-.69-.07-.23-.1-.41-.1-.45-.07-.47,0-.85.03-1.04.3-1.66,1.33-2.7,1.33-2.7s.88-.88,8.85,1.61Z"/>
    <path d="M2.97,32.43c1.8-2.9,3.21-4.93,3.41-5.18.27-.34.55-.68.55-.68,0,0,0,0,0,0,.51-.6,1-1.13,1.68-1.85,3.99-4.24,5.68-5,5.72-6.93.02-.97-.32-2.28-1.19-2.68-1.3-.6-3.15,1.07-3.59,1.46-1.01.91-1.47,1.81-2.41,3.77-3.13,6.57-3.65,9.04-3.89,10.32-.14.74-.23,1.35-.28,1.76Z"/>
    <path d="M2.64,29.96c.09-.53.25-1.33.51-2.29.16-.6.48-1.69.99-3.02.93-2.42,1.58-2.91,1.29-3.84-.17-.53-.61-1.11-1.12-1.14-.63-.04-1.14.77-1.42,1.23-1.29,2.1-.91,4.75-.52,7.46.1.69.21,1.25.28,1.61Z"/>
  </g>
  <path d="M62.01,28.52c-10.95,2.68-21.89,5.36-32.84,8.04l-.57-2.84c11.13-1.74,22.27-3.47,33.4-5.21Z"/>
</svg>