<?xml version="1.0" encoding="UTF-8"?>
<svg id="Calque_3" data-name="Calque 3" xmlns="http://www.w3.org/2000/svg" viewBox="0 0 64 64">
  <defs>
    <style>
      .cls-1 {
        fill: #faf3e0;
      }
    </style>
  </defs>
  <path class="cls-1" d="M57.88,22.75c.15.21.33.4.55.56.42.34.92.51,1.51.51.75,0,1.36-.26,1.83-.77.47-.52.71-1.15.71-1.89,0-.3-.04-.58-.12-.85-.16-.53-.46-.96-.89-1.28-.23-.16-.47-.28-.73-.36-.26-.07-.52-.11-.79-.11-.28,0-.56.04-.81.12-.24.07-.48.18-.7.34-.22.16-.4.35-.54.57-.33.46-.49.98-.49,1.57,0,.3.04.58.12.83.1.3.22.55.37.76Z"/>
  <path class="cls-1" d="M17,29.97c-.54-.7-1.2-1.32-1.97-1.85-.77-.53-1.61-.92-2.5-1.15-.47-.12-.93-.2-1.4-.24-.46-.04-.92-.04-1.38,0-.87.07-1.73.28-2.57.63-.84.35-1.63.84-2.36,1.46-.7.6-1.31,1.31-1.82,2.14-.51.82-.9,1.71-1.15,2.68-.26,1-.37,1.98-.33,2.94.04,1.04.22,1.99.54,2.84.32.86.75,1.64,1.29,2.36.52.71,1.15,1.33,1.9,1.86s1.61.93,2.57,1.18c.45.12.91.2,1.38.23.46.04.92.04,1.38,0,.89-.08,1.75-.3,2.61-.66.85-.36,1.63-.85,2.33-1.47.84-.74,1.5-1.53,1.98-2.39.48-.86.82-1.69,1.03-2.49.13-.48.21-.97.26-1.45.05-.49.07-.97.06-1.44-.04-.97-.23-1.89-.56-2.77-.33-.88-.76-1.67-1.29-2.39ZM14.25,36.96c-.07.25-.15.5-.26.74s-.22.46-.34.67c-.18.33-.44.66-.78,1.01-.34.35-.77.64-1.27.88-.41.21-.84.33-1.3.36-.46.04-.9,0-1.32-.11-.44-.12-.85-.31-1.22-.58-.4-.28-.73-.6-.98-.97-.25-.37-.45-.77-.59-1.21-.18-.55-.26-1.07-.26-1.57,0-.5.07-.95.18-1.37.07-.25.15-.5.26-.75s.22-.47.34-.68c.25-.42.55-.79.92-1.12.37-.32.75-.58,1.15-.76.85-.39,1.72-.47,2.63-.23.43.11.83.3,1.21.55.42.3.76.64,1.01,1.03.25.39.44.77.57,1.15.14.45.22.92.23,1.42s-.04,1.01-.18,1.53Z"/>
  <path class="cls-1" d="M57.39,25.77v4.18c.81-.24,1.61-.48,2.42-.73-.81.32-1.61.64-2.42.96v15.27h5.09v-19.68h-5.09Z"/>
  <path class="cls-1" d="M41.61,34.69c.08-.51-.02-1.12-.72-1.73-1.34-1.16-2.97-1.47-3.26-1.5-2.71-.34-4.89,1.2-5.72,1.79-2.18,1.55-3.2,3.57-3.64,4.62.04-.37.13-.87.29-1.42.1-.35.37-1.18.97-2.14.47-.76.96-1.29,1.26-1.6,2.61-2.68,5.54-3.23,5.84-5.24.12-.82-.15-1.88-.83-2.19-.55-.26-1.28-.24-2.04.28-1.89,1.31-3.46,2.73-5.57,5.69-2.73,3.83-3.05,4.7-3.24,5.55-.25,1.09-.66,2.69.05,4.42.58,1.43,1.63,2.25,2.09,2.6,1.32,1.01,2.66,1.27,3.52,1.44.3.06,1.3.24,2.62.17.66-.04,2.28-.14,3.92-.93,4.06-1.95,4.87-6.5,4.81-7.23-.04-.51-.26-.8-.3-.86-.02-.58-.04-1.15-.05-1.73ZM36.76,40.23c-1.14.45-2.46-.87-2.63-1.11-.14-.19-.23-.39-.23-.39-.06-.13-.09-.24-.1-.26-.08-.28-.07-.51-.07-.63.04-1.03.58-1.74.58-1.74,0,0,.45-.6,5.47.23-2.05.49-1.23,3.2-3.02,3.9Z"/>
  <path class="cls-1" d="M26.45,32.64s0,0,0,0c.26-.41.51-.76.86-1.25,2.05-2.89,3.01-3.49,2.87-4.65-.07-.59-.38-1.35-.94-1.51-.83-.25-1.81.91-2.04,1.18-.53.63-.74,1.21-1.14,2.47-1.34,4.22-1.44,5.75-1.48,6.54-.02.46-.02.84-.02,1.08.84-1.89,1.53-3.24,1.62-3.41.13-.23.28-.45.28-.45Z"/>
  <path class="cls-1" d="M25.06,29.29c-.15-.31-.46-.62-.77-.59-.38.03-.62.56-.76.86-.6,1.37-.15,2.94.31,4.54.12.41.23.74.3.95.01-.33.04-.83.12-1.43.05-.37.15-1.06.34-1.9.36-1.54.71-1.88.45-2.42Z"/>
  <path class="cls-1" d="M23.68,27.08l.9-.24-.68-3.1-.55.15c-.32.09-.6.18-.84.28-.51.22-.92.51-1.23.88-.38.46-.43.65-.43.65-.1.2-.17.37-.29.38-.07,0-.16-.05-.19-.12-.04-.1.04-.17.13-.44.04-.13.05-.22.05-.24.02-.15.02-.28.01-.35,0-.09-.02-.18-.05-.28l-3.2.85,3.31,12.37,3.2-.85-2.11-7.91c-.12-.45,0-.85.34-1.22.33-.34.88-.61,1.63-.81Z"/>
  <path class="cls-1" d="M42.73,45.45h5.09v-11.47c-1.7.67-3.39,1.35-5.09,2.02v9.45Z"/>
  <path class="cls-1" d="M50.76,45.45h5.09v-14.66c-1.7.67-3.39,1.35-5.09,2.02v12.64Z"/>
  <path class="cls-1" d="M47.82,31.06c.06-.05.12-.09.17-.13.05-.04.11-.07.17-.1.15-.08.27-.14.36-.19.09-.05.2-.09.34-.12.12-.03.23-.06.34-.08.1-.02.22-.03.34-.03s.26.01.41.05c.09.02.2.06.32.14.12.08.21.16.27.25.09.17.15.3.18.4.03.1.05.24.05.42v.29c1.69-.51,3.38-1.02,5.08-1.53,0-.15,0-.37-.03-.62-.03-.35-.06-.72-.19-1.15-.02-.09-.15-.5-.45-1-.26-.45-.64-1.08-1.37-1.49-.62-.35-1.19-.36-1.85-.38-.21,0-1.02-.01-1.99.31-.33.11-.69.24-1.1.52-.37.26-.63.44-.86.78-.17.26-.25.48-.44.51-.14.02-.31-.07-.38-.2-.11-.25.23-.49.45-1.06.1-.26.13-.46.18-.86.09-.74.11-3.48,0-7.22-1.7,0-3.4,0-5.1,0v15.81c1.7-.51,3.39-1.02,5.09-1.53v-1.77Z"/>
  <path class="cls-1" d="M55.83,30.42c0,.11.02.21.02.33v.05c.51-.2,1.03-.41,1.54-.61v-.23c-.52.16-1.04.31-1.56.47Z"/>
  <path class="cls-1" d="M47.82,32.83v1.15l2.94-1.17v-.87c-.98.29-1.96.59-2.94.88Z"/>
  <path class="cls-1" d="M41.61,34.69c-.11.66-.52,1.16-.47,1.3.05.14.3.17.51.4,0,0,.01.02.02.02.35-.14.71-.28,1.06-.42v-1.64c-.37.11-.74.22-1.12.34Z"/>
</svg>