<?xml version="1.0" encoding="UTF-8"?>
<svg id="Calque_3" data-name="Calque 3" xmlns="http://www.w3.org/2000/svg" viewBox="0 0 300 300">
  <defs>
    <style>
      .cls-1 {
        fill: #faf3e0;
      }
    </style>
  </defs>
  <path class="cls-1" d="M273.14,105.99c.71,1,1.58,1.89,2.61,2.66,2,1.61,4.39,2.42,7.16,2.42,3.55,0,6.45-1.22,8.71-3.68,2.26-2.45,3.39-5.45,3.39-9,0-1.42-.19-2.77-.58-4.06-.77-2.52-2.19-4.55-4.26-6.1-1.1-.77-2.26-1.33-3.48-1.69-1.22-.35-2.48-.53-3.77-.53-1.35,0-2.65.19-3.87.58-1.16.32-2.28.87-3.34,1.64-1.06.78-1.92,1.68-2.56,2.71-1.55,2.19-2.32,4.68-2.32,7.45,0,1.42.19,2.74.58,3.97.45,1.42,1.03,2.63,1.74,3.63Z"/>
  <path class="cls-1" d="M78.66,140.34c-2.59-3.33-5.72-6.27-9.39-8.8-3.67-2.53-7.64-4.36-11.91-5.48-2.22-.59-4.44-.97-6.64-1.14-2.2-.17-4.39-.17-6.55,0-4.14.34-8.21,1.34-12.21,3.01-4,1.66-7.75,3.97-11.22,6.93-3.33,2.87-6.21,6.25-8.66,10.17-2.45,3.91-4.27,8.16-5.48,12.74-1.26,4.77-1.78,9.43-1.56,13.97.18,4.95,1.03,9.45,2.56,13.53,1.53,4.07,3.58,7.81,6.15,11.21,2.45,3.36,5.47,6.32,9.04,8.86s7.64,4.41,12.21,5.62c2.16.57,4.34.94,6.55,1.11,2.2.17,4.39.17,6.55,0,4.21-.39,8.35-1.44,12.4-3.16,4.05-1.72,7.75-4.04,11.09-6.97,4.01-3.5,7.14-7.3,9.41-11.39,2.27-4.09,3.9-8.05,4.91-11.87.6-2.29,1.02-4.59,1.25-6.92.23-2.32.31-4.61.27-6.87-.2-4.61-1.08-9.01-2.64-13.2-1.56-4.18-3.6-7.97-6.12-11.35ZM65.55,173.62c-.32,1.21-.72,2.38-1.21,3.51s-1.03,2.19-1.61,3.19c-.86,1.55-2.09,3.14-3.72,4.79-1.63,1.65-3.64,3.04-6.06,4.17-1.93.99-4,1.56-6.19,1.73-2.2.17-4.29,0-6.27-.53-2.1-.55-4.04-1.47-5.83-2.76-1.9-1.32-3.46-2.85-4.67-4.6-1.21-1.75-2.15-3.66-2.82-5.74-.85-2.61-1.26-5.09-1.21-7.46.05-2.37.33-4.54.85-6.51.32-1.21.73-2.39,1.23-3.55s1.04-2.24,1.62-3.25c1.17-2,2.63-3.78,4.39-5.32,1.76-1.54,3.58-2.74,5.48-3.6,4.03-1.87,8.2-2.23,12.53-1.09,2.04.54,3.96,1.42,5.76,2.64,2,1.41,3.6,3.04,4.78,4.88,1.19,1.84,2.09,3.66,2.71,5.46.65,2.14,1.03,4.4,1.11,6.77.08,2.37-.2,4.79-.85,7.27Z"/>
  <path class="cls-1" d="M270.8,120.35v19.89c3.83-1.15,7.66-2.3,11.49-3.45-3.83,1.52-7.66,3.04-11.49,4.56v72.65h24.22v-93.64h-24.22Z"/>
  <path class="cls-1" d="M195.73,162.81c.39-2.44-.1-5.31-3.44-8.21-6.36-5.51-14.14-6.98-15.49-7.15-12.88-1.63-23.26,5.73-27.19,8.52-10.37,7.36-15.24,16.97-17.32,21.96.21-1.78.6-4.12,1.39-6.78.49-1.67,1.78-5.62,4.6-10.17,2.25-3.62,4.55-6.15,5.97-7.61,12.4-12.77,26.37-15.38,27.79-24.95.58-3.9-.74-8.95-3.93-10.44-2.63-1.23-6.1-1.13-9.69,1.34-9.01,6.22-16.45,12.97-26.49,27.08-12.97,18.23-14.49,22.38-15.43,26.41-1.2,5.2-3.15,12.8.22,21.05,2.78,6.82,7.76,10.72,9.94,12.39,6.29,4.81,12.66,6.06,16.76,6.86,1.44.28,6.17,1.14,12.45.79,3.14-.18,10.85-.67,18.63-4.4,19.32-9.27,23.19-30.92,22.9-34.41-.2-2.43-1.21-3.82-1.41-4.07-.09-2.74-.17-5.48-.26-8.21ZM172.65,189.18c-5.42,2.14-11.7-4.16-12.52-5.3-.64-.9-1.08-1.87-1.08-1.87-.29-.64-.44-1.14-.47-1.24-.39-1.31-.34-2.43-.32-3.01.21-4.89,2.75-8.27,2.75-8.27,0,0,2.16-2.87,26.01,1.12-9.76,2.34-5.83,15.2-14.37,18.57Z"/>
  <path class="cls-1" d="M123.61,153.07s0,0,0,0c1.22-1.93,2.42-3.63,4.07-5.96,9.77-13.76,14.31-16.6,13.64-22.14-.34-2.79-1.83-6.41-4.47-7.2-3.97-1.19-8.61,4.31-9.71,5.62-2.53,3.02-3.5,5.76-5.4,11.77-6.36,20.07-6.87,27.36-7.06,31.13-.11,2.18-.12,3.97-.11,5.16,4-9.01,7.26-15.42,7.72-16.2.64-1.08,1.31-2.16,1.31-2.16Z"/>
  <path class="cls-1" d="M117,137.1c-.69-1.46-2.2-2.94-3.67-2.82-1.83.14-2.96,2.65-3.59,4.09-2.85,6.53-.72,14,1.48,21.6.56,1.95,1.09,3.51,1.43,4.5.06-1.56.19-3.93.55-6.78.22-1.78.7-5.03,1.64-9.05,1.7-7.31,3.38-8.96,2.16-11.53Z"/>
  <path class="cls-1" d="M110.42,126.58l4.26-1.14-3.21-14.73-2.64.7c-1.53.41-2.86.86-3.99,1.35-2.43,1.04-4.38,2.43-5.84,4.17-1.83,2.18-2.04,3.08-2.04,3.08-.48.93-.79,1.78-1.39,1.83-.35.03-.76-.22-.91-.58-.19-.47.21-.79.6-2.11.18-.6.25-1.05.26-1.15.11-.73.08-1.32.07-1.65-.01-.41-.08-.86-.22-1.35l-15.22,4.07,15.73,58.86,15.22-4.07-10.05-37.62c-.57-2.12-.02-4.06,1.64-5.8,1.59-1.63,4.17-2.93,7.73-3.88Z"/>
  <path class="cls-1" d="M201.04,213.98h24.21v-54.57c-8.07,3.2-16.14,6.41-24.21,9.61v44.96Z"/>
  <path class="cls-1" d="M239.25,213.98h24.22v-69.73c-8.07,3.2-16.15,6.41-24.22,9.61v60.12Z"/>
  <path class="cls-1" d="M225.26,145.53c.29-.21.56-.41.81-.6.25-.18.52-.34.81-.48.72-.36,1.29-.66,1.72-.92.43-.25.97-.45,1.62-.59.57-.14,1.11-.27,1.62-.38.5-.11,1.04-.16,1.61-.16s1.22.07,1.94.21c.43.07.93.29,1.51.65.57.36,1,.75,1.29,1.18.43.79.71,1.42.86,1.88.14.47.21,1.13.21,1.99v1.4c8.05-2.42,16.1-4.84,24.15-7.26,0-.71-.04-1.74-.14-2.97-.14-1.66-.29-3.43-.89-5.47-.12-.41-.72-2.4-2.12-4.78-1.25-2.12-3.05-5.16-6.51-7.1-2.94-1.65-5.66-1.72-8.81-1.79-.99-.02-4.85-.06-9.46,1.5-1.59.54-3.3,1.13-5.24,2.47-1.76,1.22-2.99,2.08-4.09,3.71-.82,1.22-1.17,2.29-2.09,2.42-.65.09-1.49-.31-1.78-.96-.52-1.17,1.09-2.35,2.15-5.06.49-1.25.62-2.2.86-4.09.45-3.52.54-16.57.03-34.33-8.08,0-16.17,0-24.25,0v75.21c8.07-2.43,16.14-4.85,24.21-7.28v-8.4Z"/>
  <path class="cls-1" d="M263.39,142.46c.02.53.07,1.01.07,1.56v.23c2.44-.97,4.89-1.94,7.33-2.91v-1.1c-2.47.74-4.94,1.48-7.41,2.23Z"/>
  <path class="cls-1" d="M225.26,153.93v5.48c4.66-1.85,9.33-3.7,13.99-5.55v-4.13c-4.66,1.4-9.33,2.81-13.99,4.21Z"/>
  <path class="cls-1" d="M195.73,162.81c-.5,3.12-2.5,5.53-2.24,6.21.25.67,1.42.82,2.42,1.9,0,0,.06.08.08.11,1.68-.67,3.37-1.34,5.05-2v-7.81c-1.77.53-3.54,1.06-5.31,1.6Z"/>
</svg>